<svg width="51" height="52" viewBox="0 0 51 52" fill="none" xmlns="http://www.w3.org/2000/svg">
<g id="Calendar">
<g id="Bg">
<path id="Union" fill-rule="evenodd" clip-rule="evenodd" d="M20.6554 17.8693C20.4339 18.1654 19.9568 19.1732 19.7271 19.6854L19.7362 19.6892L16.9096 26.3745C15.7334 29.1563 16.7616 31.6237 19.5258 32.7741L26.3537 35.6157C29.1441 36.777 31.6065 35.8038 32.7749 33.0404L35.6313 26.2848L35.6289 26.2838C35.8384 25.7545 36.2218 24.7258 36.2757 24.3754C36.6344 22.3604 35.6964 20.5727 33.7554 19.556L25.8842 16.2776C23.7798 15.5989 21.8589 16.1865 20.6554 17.8693Z" fill="url(#paint0_linear_1952_1870)"/>
<g id="Path" opacity="0.5" filter="url(#filter0_f_1952_1870)">
<path d="M30.2426 21.0199L25.8322 19.2501C24.2325 18.6081 22.8902 19.2462 22.1863 20.98L19.8023 26.8522C19.0869 28.6144 19.6167 29.9773 21.2165 30.6193L25.6268 32.3891C27.2524 33.0414 28.5591 32.4155 29.2745 30.6533L31.6585 24.7811C32.3624 23.0473 31.8681 21.6723 30.2426 21.0199Z" fill="#5CC4BB"/>
</g>
</g>
<g id="Icon">
<g id="Union_2" filter="url(#filter1_b_1952_1870)">
<mask id="path-3-outside-1_1952_1870" maskUnits="userSpaceOnUse" x="20.5146" y="19.9695" width="20" height="20" fill="black">
<rect fill="white" x="20.5146" y="19.9695" width="20" height="20"/>
<path fill-rule="evenodd" clip-rule="evenodd" d="M21.6665 24.4376C21.5775 24.7949 21.5302 25.9049 21.5179 26.4642H38.7613C38.749 25.9039 38.7017 24.7854 38.6136 24.4376C38.1592 22.4463 36.597 21.161 34.41 20.9695H25.8702C23.6642 21.1515 22.121 22.4282 21.6665 24.4376ZM21.5146 26.4643V33.7179C21.5146 36.7287 23.4271 38.6057 26.4284 38.6057H33.8415C36.8712 38.6057 38.7647 36.7668 38.7647 33.776V26.4643H21.5146ZM25.4532 30.6128C25.4721 31.0501 25.8319 31.3941 26.2674 31.3741C26.6934 31.356 27.0343 30.9939 27.0153 30.5547C27.0059 30.1269 26.6556 29.7924 26.2295 29.7924C25.794 29.8124 25.4532 30.1745 25.4532 30.6128ZM29.3444 30.6128C29.3634 31.0501 29.7231 31.3941 30.1586 31.3741C30.5847 31.356 30.9255 30.9939 30.9066 30.5547C30.8971 30.1269 30.5468 29.7924 30.1208 29.7924C29.6853 29.8124 29.3444 30.1745 29.3444 30.6128ZM33.2356 34.0704C33.2356 34.5087 33.5859 34.8708 34.0215 34.8803C34.4664 34.8803 34.8262 34.5182 34.8262 34.0704C34.8262 33.6236 34.4664 33.2615 34.0215 33.2615H34.012C33.5765 33.271 33.2262 33.6322 33.2356 34.0704ZM30.1586 34.8327C29.7231 34.8527 29.3634 34.5087 29.3444 34.0704C29.3444 33.6322 29.6853 33.2711 30.1208 33.2511C30.5468 33.2511 30.8971 33.5855 30.9066 34.0142C30.9255 34.4525 30.5847 34.8146 30.1586 34.8327ZM26.2579 34.8327C25.8224 34.8527 25.4626 34.5087 25.4437 34.0704C25.4437 33.6322 25.7845 33.2711 26.2201 33.2511C26.6461 33.2511 26.9964 33.5855 27.0059 34.0142C27.0248 34.4525 26.684 34.8146 26.2579 34.8327ZM34.0214 29.8029C33.5859 29.8125 33.2451 30.165 33.2451 30.6033V30.6128C33.2545 31.0501 33.6143 31.3836 34.0498 31.3741C34.4759 31.3655 34.8167 31.0034 34.8072 30.5651C34.7883 30.145 34.4474 29.8029 34.0214 29.8029Z"/>
</mask>
<path fill-rule="evenodd" clip-rule="evenodd" d="M21.6665 24.4376C21.5775 24.7949 21.5302 25.9049 21.5179 26.4642H38.7613C38.749 25.9039 38.7017 24.7854 38.6136 24.4376C38.1592 22.4463 36.597 21.161 34.41 20.9695H25.8702C23.6642 21.1515 22.121 22.4282 21.6665 24.4376ZM21.5146 26.4643V33.7179C21.5146 36.7287 23.4271 38.6057 26.4284 38.6057H33.8415C36.8712 38.6057 38.7647 36.7668 38.7647 33.776V26.4643H21.5146ZM25.4532 30.6128C25.4721 31.0501 25.8319 31.3941 26.2674 31.3741C26.6934 31.356 27.0343 30.9939 27.0153 30.5547C27.0059 30.1269 26.6556 29.7924 26.2295 29.7924C25.794 29.8124 25.4532 30.1745 25.4532 30.6128ZM29.3444 30.6128C29.3634 31.0501 29.7231 31.3941 30.1586 31.3741C30.5847 31.356 30.9255 30.9939 30.9066 30.5547C30.8971 30.1269 30.5468 29.7924 30.1208 29.7924C29.6853 29.8124 29.3444 30.1745 29.3444 30.6128ZM33.2356 34.0704C33.2356 34.5087 33.5859 34.8708 34.0215 34.8803C34.4664 34.8803 34.8262 34.5182 34.8262 34.0704C34.8262 33.6236 34.4664 33.2615 34.0215 33.2615H34.012C33.5765 33.271 33.2262 33.6322 33.2356 34.0704ZM30.1586 34.8327C29.7231 34.8527 29.3634 34.5087 29.3444 34.0704C29.3444 33.6322 29.6853 33.2711 30.1208 33.2511C30.5468 33.2511 30.8971 33.5855 30.9066 34.0142C30.9255 34.4525 30.5847 34.8146 30.1586 34.8327ZM26.2579 34.8327C25.8224 34.8527 25.4626 34.5087 25.4437 34.0704C25.4437 33.6322 25.7845 33.2711 26.2201 33.2511C26.6461 33.2511 26.9964 33.5855 27.0059 34.0142C27.0248 34.4525 26.684 34.8146 26.2579 34.8327ZM34.0214 29.8029C33.5859 29.8125 33.2451 30.165 33.2451 30.6033V30.6128C33.2545 31.0501 33.6143 31.3836 34.0498 31.3741C34.4759 31.3655 34.8167 31.0034 34.8072 30.5651C34.7883 30.145 34.4474 29.8029 34.0214 29.8029Z" fill="#5CC4BB" fill-opacity="0.35"/>
<path d="M21.5179 26.4642L20.5181 26.4422C20.5122 26.7111 20.6149 26.9711 20.803 27.1635C20.9912 27.3558 21.2488 27.4642 21.5179 27.4642V26.4642ZM21.6665 24.4376L22.6369 24.6793C22.6386 24.6723 22.6403 24.6653 22.6419 24.6582L21.6665 24.4376ZM38.7613 26.4642V27.4642C39.0303 27.4642 39.288 27.3558 39.4762 27.1635C39.6643 26.9712 39.767 26.7112 39.7611 26.4422L38.7613 26.4642ZM38.6136 24.4376L37.6387 24.6601C37.6404 24.6678 37.6423 24.6754 37.6442 24.683L38.6136 24.4376ZM34.41 20.9695L34.4972 19.9733C34.4682 19.9708 34.4391 19.9695 34.41 19.9695V20.9695ZM25.8702 20.9695V19.9695C25.8427 19.9695 25.8153 19.9706 25.7879 19.9729L25.8702 20.9695ZM21.5146 26.4643V25.4643C20.9624 25.4643 20.5146 25.9121 20.5146 26.4643H21.5146ZM38.7647 26.4643H39.7647C39.7647 25.9121 39.317 25.4643 38.7647 25.4643V26.4643ZM26.2674 31.3741L26.2249 30.375L26.2215 30.3751L26.2674 31.3741ZM25.4532 30.6128H24.4532C24.4532 30.6272 24.4535 30.6416 24.4541 30.656L25.4532 30.6128ZM27.0153 30.5547L26.0156 30.5768C26.0157 30.5838 26.016 30.5908 26.0163 30.5977L27.0153 30.5547ZM26.2295 29.7924V28.7924C26.2142 28.7924 26.1989 28.7928 26.1836 28.7935L26.2295 29.7924ZM30.1586 31.3741L30.1162 30.375L30.1128 30.3751L30.1586 31.3741ZM29.3444 30.6128H28.3444C28.3444 30.6272 28.3447 30.6416 28.3454 30.656L29.3444 30.6128ZM30.9066 30.5547L29.9068 30.5768C29.907 30.5838 29.9072 30.5908 29.9075 30.5977L30.9066 30.5547ZM30.1208 29.7924V28.7924C30.1055 28.7924 30.0902 28.7928 30.0749 28.7935L30.1208 29.7924ZM34.0215 34.8803L33.9996 35.8801C34.0069 35.8802 34.0142 35.8803 34.0215 35.8803V34.8803ZM33.2356 34.0704H34.2356C34.2356 34.0632 34.2356 34.056 34.2354 34.0488L33.2356 34.0704ZM34.012 33.2615V32.2615C34.0047 32.2615 33.9974 32.2616 33.9901 32.2618L34.012 33.2615ZM29.3444 34.0704H28.3444C28.3444 34.0848 28.3447 34.0992 28.3454 34.1136L29.3444 34.0704ZM30.1586 34.8327L30.1162 33.8336L30.1127 33.8337L30.1586 34.8327ZM30.1208 33.2511V32.2511C30.1055 32.2511 30.0902 32.2514 30.0749 32.2521L30.1208 33.2511ZM30.9066 34.0142L29.9068 34.0363C29.907 34.0433 29.9072 34.0504 29.9075 34.0574L30.9066 34.0142ZM25.4437 34.0704H24.4437C24.4437 34.0848 24.444 34.0992 24.4446 34.1136L25.4437 34.0704ZM26.2579 34.8327L26.2155 33.8336L26.212 33.8337L26.2579 34.8327ZM26.2201 33.2511V32.2511C26.2047 32.2511 26.1894 32.2514 26.1742 32.2521L26.2201 33.2511ZM27.0059 34.0142L26.0061 34.0363C26.0063 34.0433 26.0065 34.0504 26.0068 34.0574L27.0059 34.0142ZM34.0214 29.8029V28.8029C34.0141 28.8029 34.0068 28.803 33.9995 28.8032L34.0214 29.8029ZM33.2451 30.6128H32.2451C32.2451 30.62 32.2451 30.6272 32.2453 30.6344L33.2451 30.6128ZM34.0498 31.3741L34.0297 30.3743L34.0279 30.3743L34.0498 31.3741ZM34.8072 30.5651L35.807 30.5436C35.8068 30.5357 35.8066 30.5279 35.8062 30.5201L34.8072 30.5651ZM22.5176 26.4862C22.5235 26.2171 22.538 25.8135 22.5615 25.4375C22.5732 25.2493 22.5869 25.0748 22.602 24.9309C22.6095 24.8591 22.617 24.7995 22.624 24.7525C22.6275 24.7293 22.6306 24.7111 22.6331 24.6977C22.6357 24.6838 22.6371 24.6782 22.6369 24.6793L20.6962 24.1959C20.6255 24.4796 20.5885 24.9422 20.5654 25.3128C20.5399 25.7209 20.5245 26.152 20.5181 26.4422L22.5176 26.4862ZM38.7613 25.4642H21.5179V27.4642H38.7613V25.4642ZM37.6442 24.683C37.6438 24.6813 37.6484 24.7005 37.6558 24.7499C37.6627 24.7959 37.6701 24.8548 37.6776 24.9263C37.6926 25.0696 37.7061 25.2442 37.7178 25.4331C37.7412 25.8103 37.7556 26.2164 37.7616 26.4861L39.7611 26.4422C39.7547 26.1517 39.7393 25.7184 39.714 25.3093C39.6911 24.9403 39.6544 24.4741 39.583 24.1922L37.6442 24.683ZM34.3228 21.9657C36.1232 22.1233 37.2907 23.1353 37.6387 24.6601L39.5886 24.2151C39.0276 21.7573 37.0708 20.1987 34.4972 19.9733L34.3228 21.9657ZM25.8702 21.9695H34.41V19.9695H25.8702V21.9695ZM22.6419 24.6582C22.991 23.1146 24.1394 22.1157 25.9524 21.9661L25.7879 19.9729C23.1889 20.1873 21.2509 21.7418 20.6911 24.217L22.6419 24.6582ZM22.5146 33.7179V26.4643H20.5146V33.7179H22.5146ZM26.4284 37.6057C25.1383 37.6057 24.1813 37.2062 23.5499 36.5805C22.9197 35.956 22.5146 35.0078 22.5146 33.7179H20.5146C20.5146 35.4388 21.0658 36.9345 22.1421 38.0011C23.2173 39.0666 24.7172 39.6057 26.4284 39.6057V37.6057ZM33.8415 37.6057H26.4284V39.6057H33.8415V37.6057ZM37.7647 33.776C37.7647 35.0563 37.3644 35.9867 36.74 36.5975C36.1129 37.211 35.1537 37.6057 33.8415 37.6057V39.6057C35.559 39.6057 37.0614 39.0809 38.1386 38.0272C39.2183 36.9709 39.7647 35.4865 39.7647 33.776H37.7647ZM37.7647 26.4643V33.776H39.7647V26.4643H37.7647ZM21.5146 27.4643H38.7647V25.4643H21.5146V27.4643ZM26.2215 30.3751C26.3657 30.3685 26.4484 30.4815 26.4522 30.5695L24.4541 30.656C24.4958 31.6188 25.298 32.4196 26.3133 32.373L26.2215 30.3751ZM26.0163 30.5977C26.0112 30.4812 26.1027 30.3802 26.2249 30.375L26.3098 32.3732C27.2842 32.3318 28.0573 31.5066 28.0144 30.5116L26.0163 30.5977ZM26.2295 30.7924C26.1243 30.7924 26.0184 30.7048 26.0156 30.5768L28.0151 30.5325C27.9933 29.5489 27.1869 28.7924 26.2295 28.7924V30.7924ZM26.4532 30.6128C26.4532 30.699 26.3837 30.7864 26.2754 30.7914L26.1836 28.7935C25.2043 28.8385 24.4532 29.65 24.4532 30.6128H26.4532ZM30.1128 30.3751C30.257 30.3685 30.3397 30.4815 30.3435 30.5695L28.3454 30.656C28.387 31.6188 29.1893 32.4196 30.2045 32.373L30.1128 30.3751ZM29.9075 30.5977C29.9025 30.4812 29.9939 30.3802 30.1162 30.375L30.2011 32.3732C31.1754 32.3318 31.9486 31.5066 31.9057 30.5116L29.9075 30.5977ZM30.1208 30.7924C30.0155 30.7924 29.9097 30.7048 29.9068 30.5768L31.9063 30.5325C31.8846 29.5489 31.0781 28.7924 30.1208 28.7924V30.7924ZM30.3444 30.6128C30.3444 30.699 30.2749 30.7864 30.1667 30.7914L30.0749 28.7935C29.0956 28.8385 28.3444 29.65 28.3444 30.6128H30.3444ZM34.0433 33.8805C34.16 33.8831 34.2356 33.9735 34.2356 34.0704H32.2356C32.2356 35.0439 33.0119 35.8584 33.9996 35.8801L34.0433 33.8805ZM33.8262 34.0704C33.8262 33.9719 33.9082 33.8803 34.0215 33.8803V35.8803C35.0247 35.8803 35.8262 35.0645 35.8262 34.0704H33.8262ZM34.0215 34.2615C33.909 34.2615 33.8262 34.1706 33.8262 34.0704H35.8262C35.8262 33.0765 35.0239 32.2615 34.0215 32.2615V34.2615ZM34.012 34.2615H34.0215V32.2615H34.012V34.2615ZM34.2354 34.0488C34.238 34.168 34.145 34.2588 34.0339 34.2613L33.9901 32.2618C33.0079 32.2832 32.2144 33.0963 32.2359 34.092L34.2354 34.0488ZM28.3454 34.1136C28.387 35.0766 29.1885 35.8783 30.2045 35.8316L30.1127 33.8337C30.2577 33.8271 30.3398 33.9409 30.3435 34.0273L28.3454 34.1136ZM30.0749 32.2521C29.0971 32.297 28.3444 33.1062 28.3444 34.0704H30.3444C30.3444 34.1581 30.2735 34.2451 30.1667 34.25L30.0749 32.2521ZM31.9063 33.9922C31.8846 33.0083 31.0789 32.2511 30.1208 32.2511V34.2511C30.0147 34.2511 29.9096 34.1626 29.9068 34.0363L31.9063 33.9922ZM30.2011 35.8318C31.1746 35.7904 31.9486 34.966 31.9057 33.9711L29.9075 34.0574C29.9024 33.9391 29.9948 33.8387 30.1162 33.8336L30.2011 35.8318ZM24.4446 34.1136C24.4862 35.0766 25.2878 35.8783 26.3038 35.8316L26.212 33.8337C26.357 33.8271 26.439 33.9409 26.4428 34.0273L24.4446 34.1136ZM26.1742 32.2521C25.1963 32.297 24.4437 33.1062 24.4437 34.0704H26.4437C26.4437 34.1581 26.3727 34.2451 26.2659 34.25L26.1742 32.2521ZM28.0056 33.9922C27.9839 33.0083 27.1782 32.2511 26.2201 32.2511V34.2511C26.114 34.2511 26.0089 34.1626 26.0061 34.0363L28.0056 33.9922ZM26.3004 35.8318C27.2739 35.7904 28.0479 34.966 28.0049 33.9711L26.0068 34.0574C26.0017 33.9391 26.094 33.8387 26.2155 33.8336L26.3004 35.8318ZM34.2451 30.6033C34.2451 30.6998 34.1603 30.8001 34.0433 30.8027L33.9995 28.8032C33.0115 28.8248 32.2451 29.6302 32.2451 30.6033H34.2451ZM34.2451 30.6128V30.6033H32.2451V30.6128H34.2451ZM34.0279 30.3743C34.1274 30.3721 34.242 30.4591 34.2448 30.5911L32.2453 30.6344C32.2671 31.6411 33.1012 32.3951 34.0717 32.3738L34.0279 30.3743ZM33.8075 30.5867C33.8054 30.4935 33.882 30.3772 34.0297 30.3743L34.0699 32.3739C35.0697 32.3537 35.8279 31.5134 35.807 30.5436L33.8075 30.5867ZM34.0214 30.8029C33.8898 30.8029 33.8123 30.7011 33.8082 30.6102L35.8062 30.5201C35.7642 29.5889 35.0051 28.8029 34.0214 28.8029V30.8029Z" fill="url(#paint1_linear_1952_1870)" mask="url(#path-3-outside-1_1952_1870)"/>
</g>
<g id="Union_3" filter="url(#filter2_bd_1952_1870)">
<mask id="path-5-inside-2_1952_1870" fill="white">
<path fill-rule="evenodd" clip-rule="evenodd" d="M27.3277 23.1894C27.3277 23.6096 27.0152 23.9231 26.5986 23.9231C26.1821 23.9231 25.8696 23.6096 25.8696 23.1894V20.2844C25.8696 19.8642 26.1821 19.5498 26.5986 19.5498C27.0152 19.5498 27.3277 19.8642 27.3277 20.2844V23.1894ZM34.4098 23.1894C34.4098 23.6096 34.0879 23.9231 33.6807 23.9231C33.2642 23.9231 32.9517 23.6096 32.9517 23.1894V20.2844C32.9517 19.8642 33.2642 19.5498 33.6807 19.5498C34.0879 19.5498 34.4098 19.8642 34.4098 20.2844V23.1894Z"/>
</mask>
<path fill-rule="evenodd" clip-rule="evenodd" d="M27.3277 23.1894C27.3277 23.6096 27.0152 23.9231 26.5986 23.9231C26.1821 23.9231 25.8696 23.6096 25.8696 23.1894V20.2844C25.8696 19.8642 26.1821 19.5498 26.5986 19.5498C27.0152 19.5498 27.3277 19.8642 27.3277 20.2844V23.1894ZM34.4098 23.1894C34.4098 23.6096 34.0879 23.9231 33.6807 23.9231C33.2642 23.9231 32.9517 23.6096 32.9517 23.1894V20.2844C32.9517 19.8642 33.2642 19.5498 33.6807 19.5498C34.0879 19.5498 34.4098 19.8642 34.4098 20.2844V23.1894Z" fill="url(#paint2_linear_1952_1870)"/>
<path d="M26.5986 24.3231C27.2382 24.3231 27.7277 23.8285 27.7277 23.1894H26.9277C26.9277 23.3907 26.7923 23.5231 26.5986 23.5231V24.3231ZM25.4696 23.1894C25.4696 23.8285 25.9591 24.3231 26.5986 24.3231V23.5231C26.405 23.5231 26.2696 23.3907 26.2696 23.1894H25.4696ZM25.4696 20.2844V23.1894H26.2696V20.2844H25.4696ZM26.5986 19.1498C25.9584 19.1498 25.4696 19.646 25.4696 20.2844H26.2696C26.2696 20.0824 26.4057 19.9498 26.5986 19.9498V19.1498ZM27.7277 20.2844C27.7277 19.646 27.2389 19.1498 26.5986 19.1498V19.9498C26.7916 19.9498 26.9277 20.0824 26.9277 20.2844H27.7277ZM27.7277 23.1894V20.2844H26.9277V23.1894H27.7277ZM33.6807 24.3231C34.3074 24.3231 34.8098 23.8319 34.8098 23.1894H34.0098C34.0098 23.3873 33.8683 23.5231 33.6807 23.5231V24.3231ZM32.5517 23.1894C32.5517 23.8285 33.0412 24.3231 33.6807 24.3231V23.5231C33.4871 23.5231 33.3517 23.3907 33.3517 23.1894H32.5517ZM32.5517 20.2844V23.1894H33.3517V20.2844H32.5517ZM33.6807 19.1498C33.0405 19.1498 32.5517 19.646 32.5517 20.2844H33.3517C33.3517 20.0824 33.4878 19.9498 33.6807 19.9498V19.1498ZM34.8098 20.2844C34.8098 19.6426 34.3081 19.1498 33.6807 19.1498V19.9498C33.8676 19.9498 34.0098 20.0858 34.0098 20.2844H34.8098ZM34.8098 23.1894V20.2844H34.0098V23.1894H34.8098Z" fill="url(#paint3_linear_1952_1870)" mask="url(#path-5-inside-2_1952_1870)"/>
</g>
<g id="Union_4" filter="url(#filter3_bd_1952_1870)">
<mask id="path-7-inside-3_1952_1870" fill="white">
<path fill-rule="evenodd" clip-rule="evenodd" d="M25.4619 30.6214C25.4808 31.0587 25.8406 31.4027 26.2761 31.3826C26.7021 31.3645 27.043 31.0025 27.024 30.5633C27.0146 30.1355 26.6643 29.801 26.2382 29.801C25.8027 29.821 25.4619 30.1831 25.4619 30.6214ZM29.3529 30.6214C29.3718 31.0587 29.7316 31.4027 30.1671 31.3826C30.5931 31.3645 30.934 31.0025 30.915 30.5633C30.9056 30.1355 30.5553 29.801 30.1292 29.801C29.6937 29.821 29.3529 30.1831 29.3529 30.6214ZM33.2441 34.079C33.2441 34.5173 33.5944 34.8793 34.0299 34.8888C34.4749 34.8888 34.8347 34.5268 34.8347 34.079C34.8347 33.6321 34.4749 33.2701 34.0299 33.2701H34.0204C33.5849 33.2796 33.2346 33.6407 33.2441 34.079ZM30.1671 34.8413C29.7316 34.8613 29.3718 34.5173 29.3529 34.079C29.3529 33.6408 29.6937 33.2797 30.1292 33.2597C30.5553 33.2597 30.9056 33.5941 30.915 34.0228C30.934 34.4611 30.5931 34.8232 30.1671 34.8413ZM26.2664 34.8413C25.8309 34.8613 25.4711 34.5173 25.4521 34.079C25.4521 33.6408 25.793 33.2797 26.2285 33.2597C26.6545 33.2597 27.0048 33.5941 27.0143 34.0228C27.0332 34.4611 26.6924 34.8232 26.2664 34.8413ZM34.0299 29.8115C33.5943 29.8211 33.2535 30.1736 33.2535 30.6119V30.6214C33.263 31.0587 33.6227 31.3922 34.0583 31.3827C34.4843 31.3741 34.8251 31.012 34.8157 30.5738C34.7967 30.1536 34.4559 29.8115 34.0299 29.8115Z"/>
</mask>
<path fill-rule="evenodd" clip-rule="evenodd" d="M25.4619 30.6214C25.4808 31.0587 25.8406 31.4027 26.2761 31.3826C26.7021 31.3645 27.043 31.0025 27.024 30.5633C27.0146 30.1355 26.6643 29.801 26.2382 29.801C25.8027 29.821 25.4619 30.1831 25.4619 30.6214ZM29.3529 30.6214C29.3718 31.0587 29.7316 31.4027 30.1671 31.3826C30.5931 31.3645 30.934 31.0025 30.915 30.5633C30.9056 30.1355 30.5553 29.801 30.1292 29.801C29.6937 29.821 29.3529 30.1831 29.3529 30.6214ZM33.2441 34.079C33.2441 34.5173 33.5944 34.8793 34.0299 34.8888C34.4749 34.8888 34.8347 34.5268 34.8347 34.079C34.8347 33.6321 34.4749 33.2701 34.0299 33.2701H34.0204C33.5849 33.2796 33.2346 33.6407 33.2441 34.079ZM30.1671 34.8413C29.7316 34.8613 29.3718 34.5173 29.3529 34.079C29.3529 33.6408 29.6937 33.2797 30.1292 33.2597C30.5553 33.2597 30.9056 33.5941 30.915 34.0228C30.934 34.4611 30.5931 34.8232 30.1671 34.8413ZM26.2664 34.8413C25.8309 34.8613 25.4711 34.5173 25.4521 34.079C25.4521 33.6408 25.793 33.2797 26.2285 33.2597C26.6545 33.2597 27.0048 33.5941 27.0143 34.0228C27.0332 34.4611 26.6924 34.8232 26.2664 34.8413ZM34.0299 29.8115C33.5943 29.8211 33.2535 30.1736 33.2535 30.6119V30.6214C33.263 31.0587 33.6227 31.3922 34.0583 31.3827C34.4843 31.3741 34.8251 31.012 34.8157 30.5738C34.7967 30.1536 34.4559 29.8115 34.0299 29.8115Z" fill="url(#paint4_linear_1952_1870)"/>
<path d="M26.2761 31.3826L26.2591 30.983L26.2577 30.9831L26.2761 31.3826ZM25.4619 30.6214H25.0619V30.63L25.0622 30.6387L25.4619 30.6214ZM27.024 30.5633L26.624 30.5721L26.6244 30.5805L27.024 30.5633ZM26.2382 29.801V29.401H26.229L26.2198 29.4014L26.2382 29.801ZM30.1671 31.3826L30.1501 30.983L30.1487 30.9831L30.1671 31.3826ZM29.3529 30.6214H28.9529V30.63L28.9533 30.6387L29.3529 30.6214ZM30.915 30.5633L30.5151 30.5721L30.5154 30.5805L30.915 30.5633ZM30.1292 29.801V29.401H30.12L30.1109 29.4014L30.1292 29.801ZM34.0299 34.8888L34.0211 35.2888H34.0299V34.8888ZM33.2441 34.079H33.6442L33.644 34.0703L33.2441 34.079ZM34.0204 33.2701V32.87L34.0117 32.8702L34.0204 33.2701ZM29.3529 34.079H28.9529V34.0877L28.9532 34.0963L29.3529 34.079ZM30.1671 34.8413L30.1501 34.4416L30.1487 34.4417L30.1671 34.8413ZM30.1292 33.2597V32.8597H30.12L30.1109 32.8601L30.1292 33.2597ZM30.915 34.0228L30.515 34.0317L30.5154 34.0401L30.915 34.0228ZM25.4521 34.079H25.0521V34.0877L25.0525 34.0963L25.4521 34.079ZM26.2664 34.8413L26.2494 34.4416L26.248 34.4417L26.2664 34.8413ZM26.2285 33.2597V32.8597H26.2193L26.2101 32.8601L26.2285 33.2597ZM27.0143 34.0228L26.6143 34.0317L26.6147 34.0401L27.0143 34.0228ZM34.0299 29.8115V29.4114L34.0211 29.4116L34.0299 29.8115ZM33.2535 30.6214H32.8534L32.8536 30.6301L33.2535 30.6214ZM34.0583 31.3827L34.0502 30.9827L34.0495 30.9828L34.0583 31.3827ZM34.8157 30.5738L35.2157 30.5651L35.2153 30.5557L34.8157 30.5738ZM26.2577 30.9831C26.0541 30.9924 25.8713 30.8312 25.8615 30.6041L25.0622 30.6387C25.0903 31.2862 25.627 31.8129 26.2944 31.7822L26.2577 30.9831ZM26.6244 30.5805C26.6337 30.7974 26.4658 30.9742 26.2591 30.983L26.2931 31.7823C26.9384 31.7549 27.4522 31.2076 27.4237 30.546L26.6244 30.5805ZM26.2382 30.201C26.4517 30.201 26.6196 30.3666 26.6241 30.5721L27.4239 30.5544C27.4095 29.9043 26.8768 29.401 26.2382 29.401V30.201ZM25.8619 30.6214C25.8619 30.3929 26.0386 30.2106 26.2566 30.2006L26.2198 29.4014C25.5668 29.4314 25.0619 29.9733 25.0619 30.6214H25.8619ZM30.1487 30.9831C29.9451 30.9924 29.7623 30.8312 29.7525 30.6041L28.9533 30.6387C28.9813 31.2862 29.518 31.8129 30.1855 31.7822L30.1487 30.9831ZM30.5154 30.5805C30.5248 30.7974 30.3568 30.9742 30.1501 30.983L30.1841 31.7823C30.8294 31.7549 31.3432 31.2076 31.3147 30.546L30.5154 30.5805ZM30.1292 30.201C30.3428 30.201 30.5106 30.3666 30.5151 30.5721L31.3149 30.5544C31.3006 29.9043 30.7678 29.401 30.1292 29.401V30.201ZM29.7529 30.6214C29.7529 30.3929 29.9296 30.2106 30.1476 30.2006L30.1109 29.4014C29.4578 29.4314 28.9529 29.9733 28.9529 30.6214H29.7529ZM34.0386 34.4889C33.824 34.4842 33.6441 34.3032 33.6441 34.079H32.8441C32.8441 34.7313 33.3648 35.2744 34.0211 35.2887L34.0386 34.4889ZM34.4347 34.079C34.4347 34.3083 34.2516 34.4888 34.0299 34.4888V35.2888C34.6982 35.2888 35.2346 34.7453 35.2346 34.079H34.4347ZM34.0299 33.6701C34.2519 33.6701 34.4347 33.851 34.4347 34.079H35.2346C35.2346 33.4133 34.6979 32.8701 34.0299 32.8701V33.6701ZM34.0204 33.6701H34.0299V32.8701H34.0204V33.6701ZM33.644 34.0703C33.6393 33.855 33.8123 33.6747 34.0292 33.67L34.0117 32.8702C33.3575 32.8845 32.8299 33.4264 32.8442 34.0876L33.644 34.0703ZM28.9532 34.0963C28.9813 34.7445 29.5177 35.2715 30.1855 35.2409L30.1487 34.4417C29.9454 34.451 29.7624 34.2902 29.7525 34.0618L28.9532 34.0963ZM30.1109 32.8601C29.4584 32.8901 28.9529 33.4304 28.9529 34.079H29.7529C29.7529 33.8511 29.929 33.6693 30.1476 33.6592L30.1109 32.8601ZM31.3149 34.014C31.3006 33.3632 30.7681 32.8597 30.1292 32.8597V33.6597C30.3424 33.6597 30.5106 33.8249 30.5151 34.0317L31.3149 34.014ZM30.1841 35.2409C30.8291 35.2135 31.3432 34.6665 31.3147 34.0056L30.5154 34.0401C30.5247 34.2557 30.3572 34.4328 30.1501 34.4416L30.1841 35.2409ZM25.0525 34.0963C25.0805 34.7445 25.617 35.2715 26.2847 35.2409L26.248 34.4417C26.0447 34.451 25.8616 34.2902 25.8518 34.0618L25.0525 34.0963ZM26.2101 32.8601C25.5577 32.8901 25.0521 33.4304 25.0521 34.079H25.8521C25.8521 33.8511 26.0283 33.6693 26.2469 33.6592L26.2101 32.8601ZM27.4142 34.014C27.3998 33.3632 26.8674 32.8597 26.2285 32.8597V33.6597C26.4417 33.6597 26.6098 33.8249 26.6144 34.0317L27.4142 34.014ZM26.2833 35.2409C26.9284 35.2135 27.4425 34.6665 27.4139 34.0056L26.6147 34.0401C26.624 34.2557 26.4564 34.4328 26.2494 34.4416L26.2833 35.2409ZM33.6535 30.6119C33.6535 30.3875 33.8241 30.2161 34.0386 30.2114L34.0211 29.4116C33.3646 29.426 32.8535 29.9597 32.8535 30.6119H33.6535ZM33.6535 30.6214V30.6119H32.8535V30.6214H33.6535ZM34.0495 30.9828C33.828 30.9876 33.658 30.8223 33.6534 30.6127L32.8536 30.6301C32.868 31.2951 33.4175 31.7968 34.067 31.7826L34.0495 30.9828ZM34.4158 30.5824C34.4206 30.8081 34.2468 30.9788 34.0502 30.9827L34.0663 31.7826C34.7218 31.7694 35.2296 31.216 35.2156 30.5651L34.4158 30.5824ZM34.0299 30.2115C34.2328 30.2115 34.4064 30.376 34.4161 30.5918L35.2153 30.5557C35.1871 29.9311 34.679 29.4115 34.0299 29.4115V30.2115Z" fill="url(#paint5_linear_1952_1870)" mask="url(#path-7-inside-3_1952_1870)"/>
</g>
<g id="Fill 11" opacity="0.5" filter="url(#filter4_b_1952_1870)">
<path d="M22.3946 26.5358C22.3946 26.9406 22.7099 27.2606 23.1325 27.2606L36.7936 27.2606C37.2162 27.2606 37.5325 26.9406 37.5325 26.5358C37.5325 26.1217 37.2162 25.811 36.7936 25.811L23.1325 25.811C22.7099 25.811 22.3946 26.1217 22.3946 26.5358Z" fill="url(#paint6_linear_1952_1870)" fill-opacity="0.5"/>
</g>
</g>
</g>
<defs>
<filter id="filter0_f_1952_1870" x="0.489746" y="0.00561523" width="50.4807" height="51.6355" filterUnits="userSpaceOnUse" color-interpolation-filters="sRGB">
<feFlood flood-opacity="0" result="BackgroundImageFix"/>
<feBlend mode="normal" in="SourceGraphic" in2="BackgroundImageFix" result="shape"/>
<feGaussianBlur stdDeviation="9.5" result="effect1_foregroundBlur_1952_1870"/>
</filter>
<filter id="filter1_b_1952_1870" x="-3.48535" y="-4.03052" width="67.25" height="67.6362" filterUnits="userSpaceOnUse" color-interpolation-filters="sRGB">
<feFlood flood-opacity="0" result="BackgroundImageFix"/>
<feGaussianBlur in="BackgroundImageFix" stdDeviation="12"/>
<feComposite in2="SourceAlpha" operator="in" result="effect1_backgroundBlur_1952_1870"/>
<feBlend mode="normal" in="SourceGraphic" in2="effect1_backgroundBlur_1952_1870" result="shape"/>
</filter>
<filter id="filter2_bd_1952_1870" x="10.8696" y="4.5498" width="38.54" height="34.3733" filterUnits="userSpaceOnUse" color-interpolation-filters="sRGB">
<feFlood flood-opacity="0" result="BackgroundImageFix"/>
<feGaussianBlur in="BackgroundImageFix" stdDeviation="7.5"/>
<feComposite in2="SourceAlpha" operator="in" result="effect1_backgroundBlur_1952_1870"/>
<feColorMatrix in="SourceAlpha" type="matrix" values="0 0 0 0 0 0 0 0 0 0 0 0 0 0 0 0 0 0 127 0" result="hardAlpha"/>
<feOffset dx="5" dy="5"/>
<feGaussianBlur stdDeviation="5"/>
<feColorMatrix type="matrix" values="0 0 0 0 1 0 0 0 0 0.537255 0 0 0 0 0.160784 0 0 0 0.2 0"/>
<feBlend mode="normal" in2="effect1_backgroundBlur_1952_1870" result="effect2_dropShadow_1952_1870"/>
<feBlend mode="normal" in="SourceGraphic" in2="effect2_dropShadow_1952_1870" result="shape"/>
</filter>
<filter id="filter3_bd_1952_1870" x="10.4521" y="14.801" width="39.3826" height="35.0879" filterUnits="userSpaceOnUse" color-interpolation-filters="sRGB">
<feFlood flood-opacity="0" result="BackgroundImageFix"/>
<feGaussianBlur in="BackgroundImageFix" stdDeviation="7.5"/>
<feComposite in2="SourceAlpha" operator="in" result="effect1_backgroundBlur_1952_1870"/>
<feColorMatrix in="SourceAlpha" type="matrix" values="0 0 0 0 0 0 0 0 0 0 0 0 0 0 0 0 0 0 127 0" result="hardAlpha"/>
<feOffset dx="5" dy="5"/>
<feGaussianBlur stdDeviation="5"/>
<feColorMatrix type="matrix" values="0 0 0 0 1 0 0 0 0 0.52549 0 0 0 0 0.137255 0 0 0 0.5 0"/>
<feBlend mode="normal" in2="effect1_backgroundBlur_1952_1870" result="effect2_dropShadow_1952_1870"/>
<feBlend mode="normal" in="SourceGraphic" in2="effect2_dropShadow_1952_1870" result="shape"/>
</filter>
<filter id="filter4_b_1952_1870" x="7.39453" y="10.811" width="45.1379" height="31.4495" filterUnits="userSpaceOnUse" color-interpolation-filters="sRGB">
<feFlood flood-opacity="0" result="BackgroundImageFix"/>
<feGaussianBlur in="BackgroundImageFix" stdDeviation="7.5"/>
<feComposite in2="SourceAlpha" operator="in" result="effect1_backgroundBlur_1952_1870"/>
<feBlend mode="normal" in="SourceGraphic" in2="effect1_backgroundBlur_1952_1870" result="shape"/>
</filter>
<linearGradient id="paint0_linear_1952_1870" x1="29.8187" y1="17.9142" x2="23.0146" y2="34.2291" gradientUnits="userSpaceOnUse">
<stop stop-color="#5CC4BB"/>
<stop offset="1" stop-color="#00FFE9"/>
</linearGradient>
<linearGradient id="paint1_linear_1952_1870" x1="21.5146" y1="20.9695" x2="38.7647" y2="20.9695" gradientUnits="userSpaceOnUse">
<stop stop-color="#84C4FF"/>
<stop offset="1" stop-color="#5CC4BB"/>
</linearGradient>
<linearGradient id="paint2_linear_1952_1870" x1="33.8949" y1="23.2444" x2="34.1484" y2="19.9594" gradientUnits="userSpaceOnUse">
<stop stop-color="white"/>
<stop offset="1" stop-color="white" stop-opacity="0.2"/>
</linearGradient>
<linearGradient id="paint3_linear_1952_1870" x1="33.6602" y1="20.2111" x2="37.1276" y2="21.5192" gradientUnits="userSpaceOnUse">
<stop stop-color="white" stop-opacity="0.25"/>
<stop offset="1" stop-color="white" stop-opacity="0"/>
</linearGradient>
<linearGradient id="paint4_linear_1952_1870" x1="34.1694" y1="30.7198" x2="18.3507" y2="29.6714" gradientUnits="userSpaceOnUse">
<stop stop-color="white"/>
<stop offset="1" stop-color="white" stop-opacity="0.2"/>
</linearGradient>
<linearGradient id="paint5_linear_1952_1870" x1="25.4521" y1="29.801" x2="34.8347" y2="29.801" gradientUnits="userSpaceOnUse">
<stop stop-color="#84C4FF"/>
<stop offset="1" stop-color="#5CC4BB"/>
</linearGradient>
<linearGradient id="paint6_linear_1952_1870" x1="26.4804" y1="26.5154" x2="25.9433" y2="24.8234" gradientUnits="userSpaceOnUse">
<stop stop-color="white"/>
<stop offset="1" stop-color="white" stop-opacity="0.2"/>
</linearGradient>
</defs>
</svg>
