<svg width="49" height="49" viewBox="0 0 49 49" fill="none" xmlns="http://www.w3.org/2000/svg">
<g id="Search results for Facebook - Flaticon-2 (1) 1" clip-path="url(#clip0_945_7221)">
<g id="Group">
<g id="Layer 2">
<g id="Color">
<path id="01.Facebook" d="M24.5 0.208496C19.7533 0.208496 15.1131 1.61607 11.1663 4.25323C7.21955 6.89038 4.14341 10.6387 2.3269 15.0241C0.510399 19.4095 0.0351188 24.2351 0.961164 28.8907C1.88721 33.5462 4.17299 37.8226 7.52945 41.1791C10.8859 44.5355 15.1623 46.8213 19.8178 47.7473C24.4734 48.6734 29.299 48.1981 33.6844 46.3816C38.0698 44.5651 41.8181 41.489 44.4553 37.5422C47.0924 33.5954 48.5 28.9552 48.5 24.2085C48.5 17.8433 45.9714 11.7388 41.4706 7.23793C36.9697 2.73706 30.8652 0.208496 24.5 0.208496V0.208496ZM31.3274 15.8274C31.3274 16.279 31.1379 16.459 30.6958 16.459C29.8463 16.459 28.9969 16.459 28.1505 16.4938C27.3042 16.5285 26.8432 16.9138 26.8432 17.798C26.8242 18.7453 26.8432 19.6738 26.8432 20.6401H30.4779C30.9958 20.6401 31.1726 20.8169 31.1726 21.338C31.1726 22.6011 31.1726 23.8706 31.1726 25.1464C31.1726 25.6611 31.0084 25.8222 30.4874 25.8253H26.8116V36.1011C26.8116 36.6506 26.6411 36.8243 26.0979 36.8243H22.1442C21.6674 36.8243 21.4811 36.638 21.4811 36.1611V25.8411H18.3421C17.8495 25.8411 17.6726 25.6611 17.6726 25.1653C17.6726 23.8874 17.6726 22.6106 17.6726 21.3348C17.6726 20.8422 17.859 20.6559 18.3453 20.6559H21.4811V17.8927C21.4438 16.6515 21.7416 15.4232 22.3432 14.3369C22.9685 13.2402 23.9705 12.4076 25.1632 11.9938C25.9372 11.7121 26.7553 11.571 27.579 11.5769H30.6832C31.1284 11.5769 31.3147 11.7727 31.3147 12.2085C31.3305 13.4243 31.3305 14.6274 31.3274 15.8274Z" fill="white"/>
</g>
</g>
</g>
</g>
<defs>
<clipPath id="clip0_945_7221">
<rect width="48" height="48" fill="white" transform="translate(0.5 0.208496)"/>
</clipPath>
</defs>
</svg>
