<svg width="81" height="67" viewBox="0 0 81 67" fill="none" xmlns="http://www.w3.org/2000/svg">
<g id="Heart">
<g id="Bg">
<g id="Heart_2" filter="url(#filter0_b_645_202)">
<path d="M28.2649 22.1419C27.382 22.5236 26.5788 23.0624 25.8657 23.7019C24.2847 25.0994 23.2316 26.9822 22.8462 29.0598C22.6738 29.0737 22.487 29.1168 22.3135 29.152C22.138 29.185 21.7819 29.2004 21.5304 29.2628L20.9267 29.4574C20.5879 29.5368 20.2698 29.6589 19.9473 29.8033C19.9052 29.8023 19.8498 29.8091 19.7851 29.8284L19.7184 29.8882C18.8445 30.2618 18.0425 30.7568 17.311 31.374L17.1867 31.4855C16.8703 31.7692 16.5745 32.0733 16.299 32.404L16.1633 32.5257C15.8643 32.8734 15.5981 33.2549 15.3729 33.6609C12.4079 38.8108 15.0555 44.6984 19.9605 47.5211C22.5377 48.9002 25.3846 49.6947 28.2814 49.8487C32.4106 49.9807 36.5201 49.6816 40.5621 48.9534L41.0209 48.8704L41.1487 48.4478C42.2609 44.5331 42.9543 40.5249 43.22 36.4718C43.3619 33.5925 42.8339 30.698 41.6919 28.0318C39.3195 22.9378 33.6658 19.7462 28.2649 22.1419Z" fill="url(#paint0_linear_645_202)"/>
</g>
<g id="Heart_3" opacity="0.5" filter="url(#filter1_f_645_202)">
<path d="M27.6761 30.8427C27.1189 31.0837 26.6121 31.4236 26.1621 31.8272C25.1644 32.7091 24.4999 33.8972 24.2566 35.2083C24.1478 35.217 24.03 35.2442 23.9205 35.2664C23.8097 35.2873 23.585 35.297 23.4263 35.3363L23.0454 35.4591C22.8316 35.5092 22.6308 35.5863 22.4273 35.6774C22.4007 35.6768 22.3658 35.6811 22.325 35.6932L22.2829 35.731C21.7314 35.9668 21.2253 36.2791 20.7637 36.6686L20.6853 36.7389C20.4856 36.918 20.2989 37.1099 20.1251 37.3186L20.0395 37.3953C19.8508 37.6148 19.6828 37.8555 19.5407 38.1117C17.6697 41.3615 19.3404 45.0768 22.4356 46.8581C24.0619 47.7283 25.8584 48.2297 27.6865 48.3269C30.2922 48.4102 32.8854 48.2215 35.4361 47.7619L35.7256 47.7095L35.8062 47.4428C36.5081 44.9725 36.9456 42.4432 37.1133 39.8855C37.2029 38.0685 36.8697 36.242 36.149 34.5595C34.6519 31.345 31.0843 29.331 27.6761 30.8427Z" fill="#009494"/>
</g>
<g id="Heart_4" filter="url(#filter2_b_645_202)">
<path d="M14.3838 21.7227C14.1969 21.8238 14.0306 21.9579 13.8861 22.1125C13.5653 22.4508 13.3701 22.8857 13.3258 23.3506C13.2881 23.357 13.2478 23.3701 13.2103 23.3812C13.1723 23.3918 13.0942 23.4021 13.0401 23.4207L12.911 23.4752C12.838 23.4992 12.7703 23.5322 12.7021 23.5703C12.6929 23.5709 12.6808 23.5734 12.6669 23.5789L12.6534 23.5934C12.4683 23.6925 12.3014 23.817 12.1524 23.967L12.1273 23.994C12.0631 24.0626 12.0039 24.1352 11.9497 24.2134L11.9222 24.2428C11.8632 24.3251 11.812 24.4143 11.7704 24.508C11.218 25.6992 11.9155 26.9445 13.0501 27.4713C13.6443 27.7251 14.2864 27.8451 14.9271 27.8231C15.8386 27.7724 16.7373 27.6272 17.6128 27.3887L17.7122 27.3616L17.7321 27.2661C17.9007 26.3826 17.9752 25.4867 17.9548 24.5891C17.9299 23.9524 17.7573 23.3252 17.454 22.7602C16.8326 21.6844 15.5259 21.0908 14.3838 21.7227Z" fill="url(#paint1_linear_645_202)"/>
</g>
</g>
<g id="Icon">
<g id="Heart_5" filter="url(#filter3_b_645_202)">
<mask id="path-4-outside-1_645_202" maskUnits="userSpaceOnUse" x="20.2765" y="-1.35206" width="62.8052" height="61.7866" fill="black">
<rect fill="white" x="20.2765" y="-1.35206" width="62.8052" height="61.7866"/>
<path d="M72.3497 16.947C71.3953 15.931 70.2621 15.1017 69.0328 14.4453C66.3355 12.9798 63.2212 12.4754 60.1592 12.9788C60.0568 12.7503 59.907 12.5167 59.7746 12.2973C59.6443 12.0741 59.4511 11.5957 59.2435 11.2833L58.683 10.5557C58.4096 10.1327 58.0871 9.75895 57.7316 9.39029C57.7127 9.33235 57.6765 9.2601 57.6187 9.18136L57.5037 9.11998C56.5649 8.11236 55.4929 7.26281 54.2856 6.5703L54.0714 6.45587C53.5259 6.16459 52.9623 5.91148 52.3715 5.69928L52.1377 5.57444C51.5121 5.33857 50.8556 5.16433 50.1849 5.05807C41.6255 3.56292 34.7524 10.0942 33.211 18.1878C32.5451 22.3889 32.8185 26.6684 34.0027 30.6987C35.8118 36.4003 38.2081 41.8613 41.166 47.0176L41.5023 47.6027L42.149 47.5677C48.1045 47.1459 53.9877 46.1062 59.7267 44.4605C63.781 43.2276 67.5331 41.0725 70.6731 38.1926C76.5803 32.4303 78.2714 23.1318 72.3497 16.947Z"/>
</mask>
<path d="M72.3497 16.947C71.3953 15.931 70.2621 15.1017 69.0328 14.4453C66.3355 12.9798 63.2212 12.4754 60.1592 12.9788C60.0568 12.7503 59.907 12.5167 59.7746 12.2973C59.6443 12.0741 59.4511 11.5957 59.2435 11.2833L58.683 10.5557C58.4096 10.1327 58.0871 9.75895 57.7316 9.39029C57.7127 9.33235 57.6765 9.2601 57.6187 9.18136L57.5037 9.11998C56.5649 8.11236 55.4929 7.26281 54.2856 6.5703L54.0714 6.45587C53.5259 6.16459 52.9623 5.91148 52.3715 5.69928L52.1377 5.57444C51.5121 5.33857 50.8556 5.16433 50.1849 5.05807C41.6255 3.56292 34.7524 10.0942 33.211 18.1878C32.5451 22.3889 32.8185 26.6684 34.0027 30.6987C35.8118 36.4003 38.2081 41.8613 41.166 47.0176L41.5023 47.6027L42.149 47.5677C48.1045 47.1459 53.9877 46.1062 59.7267 44.4605C63.781 43.2276 67.5331 41.0725 70.6731 38.1926C76.5803 32.4303 78.2714 23.1318 72.3497 16.947Z" fill="#1BFFFF" fill-opacity="0.35"/>
<path d="M69.0328 14.4453L68.5525 15.3225L68.5589 15.3259L69.0328 14.4453ZM60.1592 12.9788L59.2448 13.3876C59.4301 13.8012 59.8717 14.0379 60.3203 13.9641L60.1592 12.9788ZM59.7746 12.2973L58.9089 12.8009C58.9114 12.8052 58.9139 12.8094 58.9165 12.8136L59.7746 12.2973ZM59.2435 11.2833L60.0785 10.7305C60.0656 10.7112 60.0521 10.6923 60.038 10.6739L59.2435 11.2833ZM58.683 10.5557L57.8409 11.0977C57.8558 11.1208 57.8717 11.1433 57.8885 11.1651L58.683 10.5557ZM57.7316 9.39029L56.7792 9.70039C56.8259 9.84371 56.9045 9.97456 57.0092 10.0831L57.7316 9.39029ZM57.6187 9.18136L58.4269 8.5903C58.3386 8.47008 58.2243 8.37116 58.0926 8.3008L57.6187 9.18136ZM57.5037 9.11998L56.7696 9.80045C56.8446 9.88101 56.9326 9.94862 57.0298 10.0005L57.5037 9.11998ZM54.2856 6.5703L54.7861 5.70443C54.7773 5.6994 54.7685 5.6945 54.7596 5.68974L54.2856 6.5703ZM54.0714 6.45587L53.5974 7.33643L54.0714 6.45587ZM52.3715 5.69928L51.8976 6.57984C51.9404 6.60273 51.9849 6.62247 52.0307 6.6389L52.3715 5.69928ZM52.1377 5.57444L52.6117 4.69389C52.5734 4.67346 52.5339 4.65555 52.4933 4.64025L52.1377 5.57444ZM50.1849 5.05807L50.0104 6.04174C50.0156 6.04265 50.0208 6.04352 50.026 6.04434L50.1849 5.05807ZM33.211 18.1878L32.2272 18.0032C32.2253 18.0133 32.2235 18.0235 32.2219 18.0337L33.211 18.1878ZM34.0027 30.6987L33.0417 30.9811C33.0437 30.988 33.0458 30.9948 33.048 31.0016L34.0027 30.6987ZM41.166 47.0176L40.2966 47.5146L40.297 47.5153L41.166 47.0176ZM41.5023 47.6027L40.6333 48.1005C40.821 48.4272 41.1774 48.6203 41.5548 48.5998L41.5023 47.6027ZM42.149 47.5677L42.2015 48.5648C42.207 48.5645 42.2125 48.5642 42.2181 48.5638L42.149 47.5677ZM59.7267 44.4605L60.0018 45.4202C60.0069 45.4188 60.0121 45.4172 60.0172 45.4157L59.7267 44.4605ZM70.6731 38.1926L71.3502 38.9271C71.3578 38.9202 71.3653 38.9131 71.3727 38.9059L70.6731 38.1926ZM72.3497 16.947L71.6183 17.6305L71.6249 17.6373L72.3497 16.947ZM73.0811 16.2635C72.0425 15.158 70.8186 14.2653 69.5068 13.5647L68.5589 15.3259C69.7056 15.9382 70.7482 16.7041 71.6184 17.6304L73.0811 16.2635ZM69.5131 13.5682C66.6151 11.9935 63.2743 11.4548 59.998 11.9935L60.3203 13.9641C63.1681 13.4959 66.056 13.966 68.5525 15.3224L69.5131 13.5682ZM61.0735 12.57C60.939 12.2697 60.7421 11.9623 60.6327 11.7811L58.9165 12.8136C59.0719 13.071 59.1746 13.2309 59.2448 13.3876L61.0735 12.57ZM60.6402 11.7938C60.6006 11.7259 60.5488 11.6125 60.4396 11.3874C60.3492 11.2013 60.2235 10.9487 60.0785 10.7305L58.4086 11.8361C58.4712 11.9303 58.5458 12.073 58.6365 12.26C58.7083 12.4081 58.8182 12.6455 58.9089 12.8009L60.6402 11.7938ZM60.038 10.6739L59.4774 9.9464L57.8885 11.1651L58.4491 11.8926L60.038 10.6739ZM59.525 10.0138C59.2033 9.51577 58.8326 9.09012 58.454 8.69744L57.0092 10.0831C57.3415 10.4278 57.616 10.7497 57.8409 11.0977L59.525 10.0138ZM58.684 9.08019C58.6269 8.90492 58.5362 8.73911 58.4269 8.5903L56.8105 9.77242C56.8123 9.77494 56.8097 9.77181 56.8045 9.76193C56.7996 9.75276 56.7896 9.73246 56.7792 9.70039L58.684 9.08019ZM58.0926 8.3008L57.9777 8.23943L57.0298 10.0005L57.1447 10.0619L58.0926 8.3008ZM58.2379 8.43952C57.2303 7.35813 56.0793 6.44629 54.7861 5.70443L53.7852 7.43616C54.9064 8.07934 55.8995 8.8666 56.7696 9.80045L58.2379 8.43952ZM54.7596 5.68974L54.5453 5.57531L53.5974 7.33643L53.8117 7.45086L54.7596 5.68974ZM54.5453 5.57531C53.9593 5.26239 53.3513 4.98916 52.7123 4.75966L52.0307 6.6389C52.5733 6.83379 53.0925 7.06678 53.5974 7.33643L54.5453 5.57531ZM52.8454 4.81872L52.6117 4.69389L51.6638 6.455L51.8976 6.57984L52.8454 4.81872ZM52.4933 4.64025C51.804 4.38037 51.0815 4.18869 50.3437 4.0718L50.026 6.04434C50.6296 6.13996 51.2202 6.29678 51.7822 6.50864L52.4933 4.64025ZM50.3594 4.0744C41.1088 2.45851 33.8397 9.53679 32.2272 18.0032L34.1947 18.3725C35.6652 10.6515 42.1422 4.66732 50.0104 6.04174L50.3594 4.0744ZM32.2219 18.0337C31.5331 22.3794 31.8156 26.8081 33.0417 30.9811L34.9637 30.4163C33.8215 26.5288 33.5571 22.3984 34.2 18.342L32.2219 18.0337ZM33.048 31.0016C34.8784 36.7702 37.3031 42.2963 40.2966 47.5146L42.0354 46.5205C39.1131 41.4262 36.7453 36.0304 34.9575 30.3959L33.048 31.0016ZM40.297 47.5153L40.6333 48.1005L42.3713 47.1049L42.035 46.5198L40.297 47.5153ZM41.5548 48.5998L42.2015 48.5648L42.0965 46.5705L41.4498 46.6055L41.5548 48.5998ZM42.2181 48.5638C48.2434 48.1371 54.1956 47.0852 60.0018 45.4202L59.4516 43.5008C53.7799 45.1272 47.9657 46.1548 42.0798 46.5715L42.2181 48.5638ZM60.0172 45.4157C64.2175 44.1383 68.1013 41.907 71.3502 38.9271L69.996 37.4582C66.965 40.2381 63.3444 42.3168 59.4362 43.5054L60.0172 45.4157ZM71.3727 38.9059C77.5437 32.8862 79.4875 22.9546 73.0745 16.2567L71.6249 17.6373C77.0553 23.309 75.6169 31.9744 69.9736 37.4794L71.3727 38.9059Z" fill="url(#paint2_linear_645_202)" mask="url(#path-4-outside-1_645_202)"/>
</g>
</g>
</g>
<defs>
<filter id="filter0_b_645_202" x="1.12756" y="8.33063" width="55.1151" height="54.5484" filterUnits="userSpaceOnUse" color-interpolation-filters="sRGB">
<feFlood flood-opacity="0" result="BackgroundImageFix"/>
<feGaussianBlur in="BackgroundImageFix" stdDeviation="6.5"/>
<feComposite in2="SourceAlpha" operator="in" result="effect1_backgroundBlur_645_202"/>
<feBlend mode="normal" in="SourceGraphic" in2="effect1_backgroundBlur_645_202" result="shape"/>
</filter>
<filter id="filter1_f_645_202" x="0.754822" y="12.3308" width="54.3728" height="54.0152" filterUnits="userSpaceOnUse" color-interpolation-filters="sRGB">
<feFlood flood-opacity="0" result="BackgroundImageFix"/>
<feBlend mode="normal" in="SourceGraphic" in2="BackgroundImageFix" result="shape"/>
<feGaussianBlur stdDeviation="9" result="effect1_foregroundBlur_645_202"/>
</filter>
<filter id="filter2_b_645_202" x="-1.42261" y="8.46381" width="32.3807" height="32.3618" filterUnits="userSpaceOnUse" color-interpolation-filters="sRGB">
<feFlood flood-opacity="0" result="BackgroundImageFix"/>
<feGaussianBlur in="BackgroundImageFix" stdDeviation="6.5"/>
<feComposite in2="SourceAlpha" operator="in" result="effect1_backgroundBlur_645_202"/>
<feBlend mode="normal" in="SourceGraphic" in2="effect1_backgroundBlur_645_202" result="shape"/>
</filter>
<filter id="filter3_b_645_202" x="7.85431" y="-20.1571" width="93.1858" height="92.7584" filterUnits="userSpaceOnUse" color-interpolation-filters="sRGB">
<feFlood flood-opacity="0" result="BackgroundImageFix"/>
<feGaussianBlur in="BackgroundImageFix" stdDeviation="12"/>
<feComposite in2="SourceAlpha" operator="in" result="effect1_backgroundBlur_645_202"/>
<feBlend mode="normal" in="SourceGraphic" in2="effect1_backgroundBlur_645_202" result="shape"/>
</filter>
<linearGradient id="paint0_linear_645_202" x1="34.215" y1="38.1864" x2="23.9169" y2="65.5766" gradientUnits="userSpaceOnUse">
<stop stop-color="#1BFFFF"/>
<stop offset="1" stop-color="#07FFFF"/>
</linearGradient>
<linearGradient id="paint1_linear_645_202" x1="16.0055" y1="25.1407" x2="14.2655" y2="31.3705" gradientUnits="userSpaceOnUse">
<stop stop-color="#1BFFFF"/>
<stop offset="1"/>
</linearGradient>
<linearGradient id="paint2_linear_645_202" x1="42.0537" y1="0" x2="80.9246" y2="20.976" gradientUnits="userSpaceOnUse">
<stop stop-color="#84C4FF"/>
<stop offset="1" stop-color="#5CC4BB"/>
</linearGradient>
</defs>
</svg>
