<svg width="48" height="48" viewBox="0 0 48 48" fill="none" xmlns="http://www.w3.org/2000/svg">
<g id="Search results for Zalo - Flaticon-2 1" clip-path="url(#clip0_1995_433)">
<g id="Group">
<path id="Vector" d="M24 47.9999C37.2548 47.9999 47.9999 37.2548 47.9999 24C47.9999 10.7451 37.2548 0 24 0C10.7451 0 0 10.7451 0 24C0 37.2548 10.7451 47.9999 24 47.9999Z" fill="url(#paint0_linear_1995_433)"/>
<g id="Group 3">
<path id="Vector_2" d="M36.5337 29.0502V32.7153C36.5337 34.2942 35.6856 35.4381 34.1556 35.9097C33.9914 35.961 33.8205 35.9879 33.6485 35.9894C27.0694 35.9894 20.4904 35.9894 13.9122 36C12.6262 36 10.9992 34.3951 11.0059 33.0668C11.0328 27.2253 11.0309 21.3842 11.0002 15.5434C10.9954 14.7203 11.0962 13.9846 11.6062 13.3344C12.1681 12.6188 12.8999 12.0666 13.8037 12.0368C15.8658 11.9676 17.9336 12.0166 19.9967 12.0195C20.0503 12.0266 20.1031 12.0392 20.1542 12.057C19.5318 12.5103 18.9114 12.9281 18.3293 13.393C16.3873 14.945 15.0264 16.8996 14.4434 19.3228C13.6596 22.5883 14.3992 25.5494 16.4363 28.1964C16.7195 28.5804 17.0414 28.9344 17.3968 29.2528C18.1257 29.8743 18.0278 30.5283 17.3871 31.2237C16.8464 31.8105 16.2039 32.3032 15.5479 32.891C16.1078 32.9448 16.6457 33.0495 17.1806 33.037C18.5176 33.0063 19.7518 32.4665 21.0417 32.1957C21.4105 32.1179 21.8446 32.0996 22.1942 32.2178C23.4474 32.65 24.7539 32.9086 26.0773 32.9861C27.9703 33.0994 29.7702 32.794 31.5518 32.187C33.4228 31.5454 35.0219 30.513 36.5337 29.0502Z" fill="white"/>
<path id="Vector_3" d="M19.6981 23.6428C20.5788 23.6428 21.3155 23.6303 22.0502 23.6476C22.3739 23.6553 22.7302 23.7436 22.7629 24.1278C22.7831 24.3583 22.6534 24.6263 22.5228 24.8356C22.4661 24.9317 22.2395 24.9423 22.0896 24.9442C20.9688 24.9519 19.8479 24.9346 18.7281 24.9557C18.3247 24.9624 17.9664 24.8654 17.7907 24.5168C17.6149 24.1681 17.8089 23.8032 18.0423 23.5121C18.8721 22.4749 19.7144 21.4472 20.5491 20.4137C20.5991 20.3282 20.6409 20.2382 20.6739 20.1448C19.9286 20.1448 19.2333 20.1448 18.5388 20.1448C18.0874 20.1448 17.8464 19.9364 17.8396 19.558C17.8329 19.1796 18.0769 18.9462 18.5196 18.9423C19.6558 18.9318 20.793 18.926 21.9292 18.9423C22.5468 18.9519 22.8474 19.4485 22.518 19.969C22.1146 20.6058 21.6363 21.1965 21.1734 21.7939C20.7104 22.3913 20.2388 22.9666 19.6981 23.6428Z" fill="white"/>
<path id="Vector_4" d="M26.0303 24.6791C25.1438 25.4715 24.0517 25.07 23.3919 24.4966C22.5765 23.7878 22.5064 21.9803 23.1614 21.1764C23.8462 20.335 24.8816 19.9114 26.0956 20.7096C26.376 20.4704 26.6555 20.2514 27.0676 20.4618C27.4796 20.6721 27.5017 21.0448 27.5017 21.4328V23.93C27.5017 24.3286 27.5199 24.7348 27.0829 24.9576C26.7372 25.1248 26.571 25.0835 26.0303 24.6791ZM26.0053 22.7073C26.0053 22.1042 25.5875 21.5999 25.0833 21.5903C24.603 21.5817 24.1228 22.0974 24.1439 22.6468C24.1708 23.3796 24.5281 23.7849 25.0948 23.7456C25.6615 23.7062 26.0072 23.3402 26.0053 22.7035V22.7073Z" fill="white"/>
<path id="Vector_5" d="M32.328 20.2794C33.6726 20.3197 34.7224 21.2667 34.6926 22.7083C34.6619 24.2009 33.7216 25.0835 32.3155 25.121C30.9094 25.1585 29.8721 24.0645 29.9269 22.6027C29.972 21.3868 30.8614 20.2688 32.328 20.2794ZM33.2116 22.7304C33.3288 22.0908 32.7477 21.6067 32.2675 21.5923C31.7671 21.576 31.3339 22.1302 31.3455 22.7256C31.357 23.2923 31.7873 23.7994 32.2713 23.8167C32.7823 23.835 33.2097 23.3403 33.2116 22.7304Z" fill="white"/>
<path id="Vector_6" d="M29.5226 21.6834C29.5226 22.4662 29.5456 23.2499 29.512 24.0308C29.4966 24.389 29.4861 24.7991 29.026 24.9547C28.5112 25.1315 28.0396 24.8587 28.0339 24.3093C28.0166 22.568 28.0223 20.8258 28.0339 19.0845C28.0339 18.7195 28.25 18.5082 28.6159 18.4563C28.9818 18.4045 29.2882 18.5044 29.4188 18.8799C29.4844 19.0727 29.5188 19.2747 29.5206 19.4783C29.5226 20.213 29.5226 20.9477 29.5226 21.6834Z" fill="white"/>
</g>
</g>
</g>
<defs>
<linearGradient id="paint0_linear_1995_433" x1="23.9207" y1="-1.32095e-06" x2="23.9207" y2="37.6319" gradientUnits="userSpaceOnUse">
<stop stop-color="#2E3192"/>
<stop offset="1" stop-color="#1BFFFF"/>
</linearGradient>
<clipPath id="clip0_1995_433">
<rect width="48" height="48" fill="white"/>
</clipPath>
</defs>
</svg>
