<svg width="48" height="48" viewBox="0 0 48 48" fill="none" xmlns="http://www.w3.org/2000/svg">
<g id="Search results for Zalo - Flaticon-2 (2) 1" clip-path="url(#clip0_1995_448)">
<g id="Group">
<path id="Vector" d="M24 48C37.2548 48 48 37.2548 48 24C48 10.7452 37.2548 0 24 0C10.7452 0 0 10.7452 0 24C0 37.2548 10.7452 48 24 48Z" fill="url(#paint0_linear_1995_448)"/>
<path id="Vector_2" d="M32.7743 28.1826C32.0063 27.6615 30.9974 27.6641 30.2322 28.1893L29.1304 28.9455C27.9032 29.7877 26.2712 29.742 25.0917 28.8342C23.98 27.9785 22.9189 27.0611 21.9113 26.0889C20.939 25.0813 20.0217 24.0203 19.166 22.9085C18.2581 21.729 18.2125 20.097 19.0547 18.8698L19.8109 17.768C20.336 17.0028 20.3387 15.9939 19.8176 15.2259L16.6638 10.5782C15.7926 9.29442 14.0969 8.8643 12.7213 9.58195L12.7204 9.58233C9.94176 11.0321 8.77598 14.3844 10.0491 17.2483C11.8816 21.3709 14.3422 25.1418 17.3117 28.4442L19.556 30.6884C22.8584 33.6579 26.6294 36.1185 30.7519 37.9511C33.6159 39.2242 36.9681 38.0584 38.4179 35.2798L38.4182 35.2789C39.1359 33.9034 38.7059 32.2076 37.4219 31.3364L32.7743 28.1826Z" fill="white"/>
</g>
</g>
<defs>
<linearGradient id="paint0_linear_1995_448" x1="23.9208" y1="-1.32095e-06" x2="23.9208" y2="37.632" gradientUnits="userSpaceOnUse">
<stop stop-color="#2E3192"/>
<stop offset="1" stop-color="#1BFFFF"/>
</linearGradient>
<clipPath id="clip0_1995_448">
<rect width="48" height="48" fill="white"/>
</clipPath>
</defs>
</svg>
