<svg width="49" height="49" viewBox="0 0 49 49" fill="none" xmlns="http://www.w3.org/2000/svg">
<g id="Search results for Instagram - Flaticon-2 1" clip-path="url(#clip0_945_7213)">
<g id="Group">
<path id="Vector" d="M24.5 29.1304C27.2183 29.1304 29.4219 26.9268 29.4219 24.2085C29.4219 21.4902 27.2183 19.2866 24.5 19.2866C21.7817 19.2866 19.5781 21.4902 19.5781 24.2085C19.5781 26.9268 21.7817 29.1304 24.5 29.1304Z" fill="white"/>
<path id="Vector_2" d="M24.5 0.770996C11.5558 0.770996 1.0625 11.2643 1.0625 24.2085C1.0625 37.1527 11.5558 47.646 24.5 47.646C37.4442 47.646 47.9375 37.1527 47.9375 24.2085C47.9375 11.2643 37.4442 0.770996 24.5 0.770996ZM38.9804 30.1654C38.8679 32.3936 38.2418 34.5909 36.6179 36.1975C34.9783 37.8194 32.7706 38.4237 30.5209 38.5351H18.4792C16.2292 38.4237 14.0217 37.8198 12.3822 36.1975C10.7582 34.5909 10.1322 32.3936 10.0197 30.1654V18.2516C10.1322 16.0234 10.7583 13.8261 12.3822 12.2194C14.0217 10.5975 16.2295 9.99318 18.4792 9.8819H30.5208C32.7708 9.99318 34.9782 10.5972 36.6178 12.2194C38.2418 13.8261 38.8678 16.0234 38.9803 18.2516L38.9804 30.1654Z" fill="white"/>
<path id="Vector_3" d="M30.3687 12.5965C27.4357 12.516 21.5651 12.516 18.632 12.5965C17.1056 12.6384 15.3753 13.0183 14.2878 14.1799C13.1577 15.3873 12.7307 16.8461 12.6874 18.478C12.6113 21.3422 12.6874 29.9391 12.6874 29.9391C12.737 31.5708 13.1577 33.0297 14.2878 34.2371C15.3753 35.3991 17.1056 35.7787 18.632 35.8206C21.5651 35.901 27.4357 35.901 30.3687 35.8206C31.8951 35.7787 33.6254 35.3987 34.7129 34.2371C35.843 33.0297 36.27 31.571 36.3133 29.9391V18.478C36.27 16.8461 35.843 15.3873 34.7129 14.1799C33.6251 13.018 31.8947 12.6384 30.3687 12.5965ZM24.5 31.8374C22.9911 31.8374 21.5162 31.39 20.2616 30.5517C19.007 29.7134 18.0292 28.522 17.4518 27.128C16.8744 25.734 16.7233 24.2001 17.0177 22.7202C17.312 21.2403 18.0386 19.881 19.1055 18.8141C20.1725 17.7472 21.5318 17.0206 23.0117 16.7262C24.4915 16.4318 26.0254 16.5829 27.4194 17.1603C28.8134 17.7377 30.0049 18.7156 30.8432 19.9701C31.6815 21.2247 32.1289 22.6997 32.1289 24.2085C32.1289 26.2318 31.3251 28.1723 29.8944 29.603C28.4637 31.0337 26.5233 31.8374 24.5 31.8374ZM32.1613 18.1543C31.8596 18.1543 31.5646 18.0647 31.3138 17.897C31.0629 17.7293 30.8674 17.491 30.752 17.2122C30.6365 16.9334 30.6064 16.6266 30.6653 16.3307C30.7242 16.0347 30.8696 15.7629 31.083 15.5495C31.2964 15.3362 31.5682 15.1909 31.8642 15.1321C32.1601 15.0732 32.4669 15.1035 32.7457 15.219C33.0245 15.3344 33.2627 15.53 33.4304 15.7809C33.598 16.0318 33.6875 16.3268 33.6875 16.6286C33.6875 16.829 33.648 17.0274 33.5713 17.2125C33.4946 17.3977 33.3822 17.5659 33.2405 17.7076C33.0987 17.8493 32.9305 17.9616 32.7453 18.0383C32.5602 18.115 32.3617 18.1544 32.1613 18.1543Z" fill="white"/>
</g>
</g>
<defs>
<clipPath id="clip0_945_7213">
<rect width="48" height="48" fill="white" transform="translate(0.5 0.208496)"/>
</clipPath>
</defs>
</svg>
