<svg width="8" height="78" viewBox="0 0 8 78" fill="none" xmlns="http://www.w3.org/2000/svg">
<path id="Line 2" d="M4 77.8868L6.88675 75L4 72.1132L1.11325 75L4 77.8868ZM4.35356 0.646446C4.15829 0.451187 3.84171 0.451187 3.64645 0.646446L0.464469 3.82843C0.269207 4.02369 0.269207 4.34027 0.464469 4.53554C0.659731 4.7308 0.976314 4.7308 1.17158 4.53554L4 1.70711L6.82843 4.53554C7.02369 4.7308 7.34027 4.7308 7.53554 4.53554C7.7308 4.34027 7.7308 4.02369 7.53554 3.82843L4.35356 0.646446ZM4.5 75L4.5 1L3.5 1L3.5 75L4.5 75Z" fill="white"/>
</svg>
