<svg width="49" height="49" viewBox="0 0 49 49" fill="none" xmlns="http://www.w3.org/2000/svg">
<g id="Search results for Tiktok - Flaticon-2 1" clip-path="url(#clip0_945_7218)">
<g id="Group">
<path id="Vector" d="M24.5 0.208496C11.2472 0.208496 0.5 10.9557 0.5 24.2085C0.5 37.4613 11.2472 48.2085 24.5 48.2085C37.7528 48.2085 48.5 37.4613 48.5 24.2085C48.5 10.9557 37.7528 0.208496 24.5 0.208496ZM36.5403 18.5716V21.8212C35.008 21.8218 33.5191 21.5215 32.1149 20.9291C31.212 20.5479 30.3708 20.0568 29.6014 19.4632L29.6245 29.4657C29.6148 31.7181 28.7237 33.8343 27.1109 35.4283C25.7984 36.7258 24.1353 37.5509 22.3327 37.818C21.9091 37.8807 21.4781 37.9129 21.0421 37.9129C19.1125 37.9129 17.2805 37.2877 15.7819 36.1344C15.4999 35.9173 15.2302 35.6819 14.9734 35.4283C13.2255 33.7008 12.3242 31.3595 12.476 28.8964C12.5918 27.0215 13.3424 25.2334 14.5938 23.8319C16.2494 21.9773 18.5656 20.948 21.0421 20.948C21.4781 20.948 21.9091 20.9807 22.3327 21.0434V22.2449V25.5873C21.9311 25.4548 21.5022 25.382 21.0555 25.382C18.793 25.382 16.9625 27.2279 16.9963 29.4922C17.0178 30.9409 17.8092 32.2072 18.9763 32.9053C19.5249 33.2334 20.1559 33.4367 20.8293 33.4736C21.3569 33.5026 21.8636 33.4291 22.3327 33.2742C23.9492 32.7402 25.1154 31.2218 25.1154 29.431L25.1207 22.7329V10.5041H29.596C29.6003 10.9476 29.6453 11.3802 29.7289 11.7995C30.0667 13.4964 31.0232 14.9687 32.3545 15.9724C33.5153 16.8479 34.9607 17.3669 36.5274 17.3669C36.5284 17.3669 36.5413 17.3669 36.5402 17.3659V18.5716H36.5403Z" fill="white"/>
</g>
</g>
<defs>
<clipPath id="clip0_945_7218">
<rect width="48" height="48" fill="white" transform="translate(0.5 0.208496)"/>
</clipPath>
</defs>
</svg>
