<svg width="49" height="49" viewBox="0 0 49 49" fill="none" xmlns="http://www.w3.org/2000/svg">
<g id="Search results for Whatsapp - Flaticon-2 1" clip-path="url(#clip0_945_7207)">
<g id="Group">
<g id="Layer 2">
<g id="08.whatsapp">
<path id="Vector" d="M31.1316 17.5769L31.0842 17.5295C29.5145 15.9682 27.4402 15.0167 25.2328 14.8455C23.0254 14.6744 20.8292 15.2947 19.0376 16.5954C17.2459 17.8961 15.9759 19.7922 15.455 21.944C14.9341 24.0959 15.1963 26.3629 16.1947 28.339L16.6052 29.1474L15.8379 32.8674V32.9148L19.5231 32.04L20.3631 32.4569C22.1114 33.3247 24.0879 33.622 26.0141 33.307C27.9404 32.992 29.7192 32.0806 31.1 30.7011C32.8336 28.9591 33.8095 26.6031 33.8154 24.1455C33.8213 21.6878 32.8568 19.3272 31.1316 17.5769ZM30.7589 27.9979C30.3073 28.7085 29.5905 29.5769 28.6968 29.7948C27.1179 30.1769 24.7147 29.7948 21.7052 27.0127L21.6673 26.9779C19.0495 24.5337 18.3547 22.4969 18.5095 20.8832C18.601 19.9674 19.3652 19.14 20.0095 18.5969C20.1116 18.5099 20.2328 18.4481 20.3633 18.4166C20.4937 18.385 20.6297 18.3846 20.7604 18.4153C20.891 18.4461 21.0126 18.5071 21.1153 18.5935C21.218 18.6799 21.2989 18.7892 21.3516 18.9127L22.321 21.1232C22.3843 21.2643 22.4081 21.4199 22.3897 21.5734C22.3713 21.727 22.3116 21.8726 22.2168 21.9948L21.7242 22.6264C21.6218 22.7575 21.5608 22.9161 21.549 23.082C21.5372 23.248 21.5751 23.4137 21.6579 23.5579C22.126 24.2465 22.6859 24.868 23.3221 25.4053C24.0051 26.0662 24.7819 26.6228 25.6273 27.0569C25.7813 27.1194 25.9505 27.1345 26.1131 27.1001C26.2757 27.0658 26.4244 26.9837 26.54 26.8643L27.1052 26.2927C27.2108 26.1717 27.348 26.0828 27.5015 26.0359C27.655 25.989 27.8186 25.9861 27.9737 26.0274L30.2789 26.6906C30.4071 26.7281 30.5248 26.7948 30.6227 26.8856C30.7206 26.9763 30.7962 27.0886 30.8433 27.2135C30.8905 27.3385 30.908 27.4726 30.8944 27.6055C30.8809 27.7383 30.8366 27.8662 30.7652 27.979L30.7589 27.9979Z" fill="white"/>
<path id="Vector_2" d="M24.5 0.208496C19.7533 0.208496 15.1131 1.61607 11.1663 4.25323C7.21955 6.89038 4.14341 10.6387 2.3269 15.0241C0.510399 19.4095 0.0351188 24.2351 0.961164 28.8907C1.88721 33.5462 4.17299 37.8226 7.52945 41.1791C10.8859 44.5355 15.1623 46.8213 19.8178 47.7473C24.4734 48.6734 29.299 48.1981 33.6844 46.3816C38.0698 44.5651 41.8181 41.489 44.4553 37.5422C47.0924 33.5954 48.5 28.9552 48.5 24.2085C48.5 17.8433 45.9714 11.7388 41.4706 7.23793C36.9697 2.73706 30.8652 0.208496 24.5 0.208496V0.208496ZM36.3958 24.4895C36.331 26.4828 35.7666 28.4278 34.7545 30.1461C33.7424 31.8644 32.3149 33.3011 30.6031 34.3242C28.8913 35.3473 26.95 35.9242 24.9572 36.0018C22.9645 36.0794 20.9841 35.6554 19.1979 34.7685L13.1979 36.1959C13.1072 36.2167 13.0123 36.2097 12.9256 36.1759C12.8389 36.1422 12.7643 36.0831 12.7116 36.0064C12.6755 35.9551 12.6505 35.897 12.638 35.8356C12.6255 35.7742 12.6258 35.7108 12.639 35.6496L13.9021 29.5169C13.0764 27.8991 12.6319 26.1137 12.6025 24.2976C12.5731 22.4815 12.9597 20.6827 13.7326 19.039C14.5056 17.3953 15.6443 15.9502 17.0618 14.8144C18.4793 13.6786 20.1378 12.8822 21.9105 12.4862C23.6832 12.0902 25.5229 12.105 27.289 12.5296C29.0551 12.9542 30.7005 13.7772 32.0995 14.9357C33.4985 16.0942 34.6138 17.5574 35.3601 19.2134C36.1064 20.8694 36.4639 22.6741 36.4053 24.4895H36.3958Z" fill="white"/>
</g>
</g>
</g>
</g>
<defs>
<clipPath id="clip0_945_7207">
<rect width="48" height="48" fill="white" transform="translate(0.5 0.208496)"/>
</clipPath>
</defs>
</svg>
